Coordinates
version=1
nRows=4
nColumns=107
inDegrees=yes

Units are S.I. units (second, meters, Newtons, ...)
If the header above contains a line with 'inDegrees', this indicates whether rotational values are in degrees (yes) or radians (no).

endheader
time	sternoclavicular_r2	sternoclavicular_r3	unrotscap_r3	unrotscap_r2	acromioclavicular_r2	acromioclavicular_r3	acromioclavicular_r1	unrothum_r1	unrothum_r3	unrothum_r2	elv_angle	shoulder_elv	shoulder1_r2	shoulder_rot	elbow_flexion	pro_sup	deviation	flexion	proximal_distal_r1	proximal_distal_r3	cmc_flexion	cmc_abduction	mp_flexion	ip_flexion	mcp2_flexion	mcp2_abduction	pm2_flexion	md2_flexion	mcp3_flexion	mcp3_abduction	pm3_flexion	md3_flexion	mcp4_flexion	mcp4_abduction	pm4_flexion	md4_flexion	mcp5_flexion	mcp5_abduction	pm5_flexion	md5_flexion	bicpt_tx	bicpt_ty	bicpt_tz	bicpt2_tx	bicpt2_ty	bicpt2_tz	ptpt_tx	ptpt_ty	ptpt_tz	FCUpt_tx	FCUpt_ty	FCUpt_tz	EDCpt_tx	EDCpt_ty	EDCpt_tz	APLpt_tx	APLpt_ty	APLpt_tz	FPLpt_tx	FPLpt_ty	FPLpt_tz	FPLpt2_tx	FPLpt2_ty	FPLpt2_tz	PEC1pt2_tx	PEC1pt2_ty	PEC1pt2_tz	PEC1pt3_tx	PEC1pt3_ty	PEC1pt3_tz	PEC2pt2_tx	PEC2pt2_ty	PEC2pt2_tz	PEC2pt3_tx	PEC2pt3_ty	PEC2pt3_tz	PEC3pt2_tx	PEC3pt2_ty	PEC3pt2_tz	PEC3pt3_tx	PEC3pt3_ty	PEC3pt3_tz	DELT2pt2a_tx	DELT2pt2a_ty	DELT2pt2a_tz	DELT2pt2_tx	DELT2pt2_ty	DELT2pt2_tz	LAT1pt2_tx	LAT1pt2_ty	LAT1pt2_tz	LAT1pt3_tx	LAT1pt3_ty	LAT1pt3_tz	LAT2pt2_tx	LAT2pt2_ty	LAT2pt2_tz	LAT2pt3_tx	LAT2pt3_ty	LAT2pt3_tz	LAT3pt2_tx	LAT3pt2_ty	LAT3pt2_tz	LAT3pt3_tx	LAT3pt3_ty	LAT3pt3_tz
      0.96666667	     -0.33428403	      0.14158694	     -0.14158694	      0.33428403	     -0.06768572	      0.54701215	      0.24587820	     -0.24587820	     -0.54701215	      0.06768572	     96.35365464	     79.14471533	     -1.68168852	     -6.02470117	     28.19229604	     -6.32396628	     -0.00434207	     -0.97773441	     -0.00590819	     -0.48886721	     -9.50011823	      0.11309957	    -35.56690362	     -0.07915200	      5.52539333	      7.20583757	     11.71453210	    -24.19828859	     45.08938263	     11.56000134	     87.20911092	     72.90902723	     38.84239000	     -5.42082994	     89.16150642	     52.17542460	     -5.54982943	      0.05415385	    -13.77625324	      4.98085965	      0.00083251	     -0.03083127	     -0.00482047	      0.01403323	     -0.01785858	     -0.01091081	      0.00801727	     -0.06459786	      0.00045943	      0.00344755	     -0.18415405	      0.00075044	      0.00075887	     -0.00017301	     -0.00010253	      0.00019981	      0.00007992	      0.00039962	      0.00025576	      0.00076727	      0.00043159	     -0.00120564	      0.00028764	      0.00034517	      0.00259419	      0.00910165	      0.00633158	     -0.00848608	      0.02048970	     -0.01943444	      0.00259419	      0.00910165	      0.00633158	      0.00057160	      0.01899475	     -0.00998104	      0.00405904	      0.00506131	      0.01623274	      0.00000000	      0.00838184	      0.00000000	     -0.00743082	     -0.03434004	     -0.00691438	      0.00440568	     -0.00005142	     -0.00015486	     -0.00092336	      0.01547720	     -0.00633158	      0.00255022	      0.02233642	     -0.01846712	     -0.00619967	      0.01341064	     -0.00567204	     -0.01292698	      0.02831624	     -0.03170188	     -0.02427107	      0.01499354	     -0.00760669	     -0.01609277	      0.03271318	     -0.03961636
      1.00000000	     -0.33317386	      0.14111672	     -0.14111672	      0.33317386	     -0.06746093	      0.54519551	      0.24506163	     -0.24506163	     -0.54519551	      0.06746093	     96.54466190	     78.88187369	     -1.68502223	     -7.01181991	     28.06933883	     -5.67748932	     -0.01043243	     -0.96753858	     -0.01424725	     -0.48376929	     -8.90905461	      1.20651705	    -35.41250331	     -0.14032102	      6.07750313	      6.70637289	     12.11740360	    -24.03112834	     43.78480931	     11.36303684	     86.65765731	     72.42747332	     36.89548513	     -5.26164943	     87.93653575	     51.67881866	     -4.76448761	     -1.17852391	    -13.06719861	      5.05864815	      0.00082845	     -0.03081718	     -0.00481820	      0.01410250	     -0.01782517	     -0.01088351	      0.00796950	     -0.06462874	      0.00040735	      0.00350346	     -0.18414905	      0.00072345	      0.00068130	     -0.00015589	     -0.00009105	      0.00020596	      0.00008239	      0.00041193	      0.00026363	      0.00079090	      0.00044488	     -0.00105966	      0.00026682	      0.00032019	      0.00258557	      0.00907142	      0.00631056	     -0.00845790	      0.02042166	     -0.01936990	      0.00258557	      0.00907142	      0.00631056	      0.00056970	      0.01893167	     -0.00994789	      0.00404936	      0.00504450	      0.01621017	      0.00000000	      0.00832584	      0.00000000	     -0.00740614	     -0.03422600	     -0.00686793	      0.00515338	     -0.00007252	     -0.00025451	     -0.00092029	      0.01542580	     -0.00631056	      0.00254175	      0.02226224	     -0.01840579	     -0.00617909	      0.01336611	     -0.00565321	     -0.01288405	      0.02822221	     -0.03159660	     -0.02419046	      0.01494375	     -0.00758143	     -0.01603933	      0.03260454	     -0.03948479
      1.03333333	     -0.33277537	      0.14094794	     -0.14094794	      0.33277537	     -0.06738024	      0.54454343	      0.24476852	     -0.24476852	     -0.54454343	      0.06738024	     96.69472983	     78.78752740	     -1.68764140	     -7.32648452	     27.77290216	     -5.34914094	     -0.01743606	     -0.94674815	     -0.02391202	     -0.47337407	     -7.51267093	      2.00739321	    -34.84319366	     -0.00165137	      7.07997243	      6.14621853	     12.77898258	    -23.76154051	     41.47102750	     10.90771783	     85.41091108	     71.47637748	     34.45763761	     -5.58017535	     86.02168175	     50.87447768	     -3.99499019	     -3.02618558	    -12.14937099	      5.14325747	      0.00081864	     -0.03078320	     -0.00481273	      0.01413729	     -0.01774465	     -0.01086941	      0.00794524	     -0.06464443	      0.00038090	      0.00353190	     -0.18414646	      0.00070987	      0.00064190	     -0.00014715	     -0.00008531	      0.00021802	      0.00008721	      0.00043604	      0.00027907	      0.00083721	      0.00047093	     -0.00075961	      0.00021916	      0.00026300	      0.00258248	      0.00906057	      0.00630301	     -0.00844778	      0.02039723	     -0.01934673	      0.00258248	      0.00906057	      0.00630301	      0.00056902	      0.01890902	     -0.00993599	      0.00404588	      0.00503847	      0.01620203	      0.00000000	      0.00830578	      0.00000000	     -0.00739728	     -0.03418506	     -0.00685129	      0.00538879	     -0.00007973	     -0.00029081	     -0.00091919	      0.01540735	     -0.00630301	      0.00253871	      0.02223561	     -0.01838377	     -0.00617169	      0.01335012	     -0.00564644	     -0.01286864	      0.02818845	     -0.03155881	     -0.02416153	      0.01492587	     -0.00757236	     -0.01602014	      0.03256554	     -0.03943757
      1.06666667	     -0.33287434	      0.14098986	     -0.14098986	      0.33287434	     -0.06740028	      0.54470537	      0.24484131	     -0.24484131	     -0.54470537	      0.06740028	     96.78385803	     78.81095777	     -1.68919699	     -7.11618330	     27.39876815	     -5.06831037	     -0.02304575	     -0.91288121	     -0.03171080	     -0.45644061	     -5.33182337	      2.20176982	    -33.97306712	      0.31429031	      8.12141057	      5.38526638	     13.58372010	    -23.41214200	     38.15014401	     10.03935462	     82.85652903	     69.72730980	     30.95470400	     -6.37244740	     82.89322238	     49.54874750	     -3.33986145	     -5.72299534	    -10.94353895	      5.21248471	      0.00080627	     -0.03074032	     -0.00480582	      0.01416683	     -0.01764301	     -0.01085721	      0.00792449	     -0.06465785	      0.00035828	      0.00355626	     -0.18414422	      0.00069832	      0.00060820	     -0.00013964	     -0.00008045	      0.00023612	      0.00009445	      0.00047225	      0.00030224	      0.00090672	      0.00051003	     -0.00040620	      0.00014909	      0.00017890	      0.00258325	      0.00906327	      0.00630488	     -0.00845029	      0.02040330	     -0.01935248	      0.00258325	      0.00906327	      0.00630488	      0.00056919	      0.01891465	     -0.00993895	      0.00404674	      0.00503997	      0.01620405	      0.00000000	      0.00831076	      0.00000000	     -0.00739948	     -0.03419523	     -0.00685542	      0.00523149	     -0.00007490	     -0.00026650	     -0.00091946	      0.01541193	     -0.00630488	      0.00253947	      0.02224222	     -0.01838924	     -0.00617353	      0.01335409	     -0.00564812	     -0.01287247	      0.02819683	     -0.03156819	     -0.02416871	      0.01493031	     -0.00757462	     -0.01602491	      0.03257522	     -0.03944930
